<svg width="20" height="20" viewBox="0 0 20 20" fill="none" xmlns="http://www.w3.org/2000/svg">
<path d="M13.875 4.76584H6.12499C3.66666 4.76584 1.66666 6.76584 1.66666 9.22417V13.8742C1.66666 16.3325 3.66666 18.3325 6.12499 18.3325H13.875C16.3333 18.3325 18.3333 16.3325 18.3333 13.8742V9.22417C18.3333 6.76584 16.3333 4.76584 13.875 4.76584V4.76584ZM12.0833 10.0158C12.0833 9.55751 12.4583 9.18251 12.9167 9.18251C13.375 9.18251 13.75 9.55751 13.75 10.0158C13.75 10.4742 13.375 10.8575 12.9167 10.8575C12.4583 10.8575 12.0833 10.4908 12.0833 10.0325V10.0158V10.0158ZM8.44166 13.3908C8.31666 13.5158 8.15832 13.5742 7.99999 13.5742C7.84166 13.5742 7.68332 13.5158 7.55832 13.3908L6.69999 12.5325L5.87499 13.3575C5.74999 13.4825 5.59166 13.5408 5.43332 13.5408C5.27499 13.5408 5.11666 13.4825 4.99166 13.3575C4.87542 13.2399 4.81024 13.0812 4.81024 12.9158C4.81024 12.7505 4.87542 12.5918 4.99166 12.4742L5.81666 11.6492L5.01666 10.8492C4.90042 10.7316 4.83524 10.5729 4.83524 10.4075C4.83524 10.2421 4.90042 10.0835 5.01666 9.96584C5.25832 9.72417 5.65832 9.72417 5.89999 9.96584L6.69999 10.7658L7.52499 9.94084C7.76666 9.69917 8.16666 9.69917 8.40832 9.94084C8.64999 10.1825 8.64999 10.5825 8.40832 10.8242L7.58332 11.6492L8.44166 12.5075C8.68332 12.7492 8.68332 13.1492 8.44166 13.3908V13.3908ZM11.2833 12.4992C10.825 12.4992 10.4417 12.1242 10.4417 11.6658C10.4417 11.2075 10.8083 10.8325 11.2667 10.8325H11.2833C11.7417 10.8325 12.1167 11.2075 12.1167 11.6658C12.1167 12.1242 11.75 12.4992 11.2833 12.4992ZM12.9167 14.1408C12.4583 14.1408 12.0833 13.7742 12.0833 13.3158V13.2992C12.0833 12.8408 12.4583 12.4658 12.9167 12.4658C13.375 12.4658 13.75 12.8408 13.75 13.2992C13.75 13.7575 13.3833 14.1408 12.9167 14.1408ZM14.5667 12.4992C14.1083 12.4992 13.725 12.1242 13.725 11.6658C13.725 11.2075 14.0917 10.8325 14.55 10.8325H14.5667C15.025 10.8325 15.4 11.2075 15.4 11.6658C15.4 12.1242 15.0333 12.4992 14.5667 12.4992V12.4992Z" fill="black"/>
<path d="M11.3667 2.25834L11.3583 3.04167C11.3518 3.39835 11.2061 3.73833 10.9523 3.98902C10.6985 4.23971 10.3567 4.38122 10 4.38334C9.875 4.38334 9.8 4.46667 9.8 4.57501C9.8 4.68334 9.88333 4.76667 9.99166 4.76667H8.65C8.64167 4.70834 8.63333 4.64167 8.63333 4.57501C8.63333 3.82501 9.24166 3.21667 9.98333 3.21667C10.1083 3.21667 10.1917 3.13334 10.1917 3.02501L10.2 2.24167C10.2083 1.92501 10.4667 1.66667 10.7833 1.66667H10.7917C11.1167 1.66667 11.3667 1.93334 11.3667 2.25834V2.25834Z" fill="black"/>
</svg>
