<svg width="20" height="20" viewBox="0 0 20 20" fill="none" xmlns="http://www.w3.org/2000/svg">
<path d="M14.1333 5.14166C15.8 6.29999 16.95 8.14166 17.1833 10.2667M2.90831 10.3083C3.01308 9.2893 3.33507 8.30458 3.85257 7.42051C4.37007 6.53645 5.07107 5.77358 5.90831 5.18333M6.82498 17.45C7.79165 17.9417 8.89165 18.2167 10.05 18.2167C11.1666 18.2167 12.2166 17.9667 13.1583 17.5083M10.05 6.41666C10.6644 6.41666 11.2537 6.17258 11.6881 5.73812C12.1226 5.30366 12.3666 4.71441 12.3666 4.09999C12.3666 3.48557 12.1226 2.89632 11.6881 2.46186C11.2537 2.0274 10.6644 1.78333 10.05 1.78333C9.43556 1.78333 8.84631 2.0274 8.41185 2.46186C7.97739 2.89632 7.73331 3.48557 7.73331 4.09999C7.73331 4.71441 7.97739 5.30366 8.41185 5.73812C8.84631 6.17258 9.43556 6.41666 10.05 6.41666V6.41666ZM4.02498 16.6C4.6394 16.6 5.22865 16.3559 5.66311 15.9215C6.09757 15.487 6.34165 14.8977 6.34165 14.2833C6.34165 13.6689 6.09757 13.0797 5.66311 12.6452C5.22865 12.2107 4.6394 11.9667 4.02498 11.9667C3.41056 11.9667 2.82131 12.2107 2.38685 12.6452C1.95239 13.0797 1.70831 13.6689 1.70831 14.2833C1.70831 14.8977 1.95239 15.487 2.38685 15.9215C2.82131 16.3559 3.41056 16.6 4.02498 16.6V16.6ZM15.975 16.6C16.5894 16.6 17.1787 16.3559 17.6131 15.9215C18.0476 15.487 18.2916 14.8977 18.2916 14.2833C18.2916 13.6689 18.0476 13.0797 17.6131 12.6452C17.1787 12.2107 16.5894 11.9667 15.975 11.9667C15.3606 11.9667 14.7713 12.2107 14.3368 12.6452C13.9024 13.0797 13.6583 13.6689 13.6583 14.2833C13.6583 14.8977 13.9024 15.487 14.3368 15.9215C14.7713 16.3559 15.3606 16.6 15.975 16.6V16.6Z" stroke="black" stroke-width="1.5" stroke-linecap="round" stroke-linejoin="round"/>
</svg>
