<svg width="20" height="20" viewBox="0 0 20 20" fill="none" xmlns="http://www.w3.org/2000/svg">
<g clip-path="url(#clip0_5_167)">
<path d="M10.7416 4.90002H4.25829C3.57162 4.90222 2.91369 5.17598 2.42814 5.66153C1.94258 6.14709 1.66882 6.80501 1.66663 7.49169V16.9584C1.66663 18.1667 2.53329 18.6834 3.59163 18.0917L6.86663 16.2667C7.21663 16.075 7.78329 16.075 8.12496 16.2667L11.4 18.0917C12.4583 18.6834 13.325 18.1667 13.325 16.9584V7.49169C13.3255 7.1519 13.2591 6.81532 13.1296 6.50118C13.0001 6.18704 12.8099 5.90149 12.57 5.66083C12.3302 5.42017 12.0452 5.22912 11.7315 5.09858C11.4178 4.96804 11.0814 4.90057 10.7416 4.90002Z" stroke="black" stroke-width="1.5" stroke-linecap="round" stroke-linejoin="round"/>
<path d="M13.3333 7.49169V16.9584C13.3333 18.1667 12.4666 18.675 11.4083 18.0917L8.13329 16.2667C7.78329 16.075 7.21663 16.075 6.86663 16.2667L3.59163 18.0917C2.53329 18.675 1.66663 18.1667 1.66663 16.9584V7.49169C1.66663 6.06669 2.83329 4.90002 4.25829 4.90002H10.7416C12.1666 4.90002 13.3333 6.06669 13.3333 7.49169Z" stroke="black" stroke-width="1.5" stroke-linecap="round" stroke-linejoin="round"/>
<path d="M18.3333 4.25835V13.725C18.3333 14.9334 17.4666 15.4417 16.4083 14.8584L13.3333 13.1417V7.49169C13.3333 6.06669 12.1666 4.90002 10.7416 4.90002H6.66663V4.25835C6.66663 2.83335 7.83329 1.66669 9.25829 1.66669H15.7416C17.1666 1.66669 18.3333 2.83335 18.3333 4.25835Z" stroke="black" stroke-width="1.5" stroke-linecap="round" stroke-linejoin="round"/>
</g>
<defs>
<clipPath id="clip0_5_167">
<rect width="20" height="20" fill="white"/>
</clipPath>
</defs>
</svg>
