<svg width="16" height="16" viewBox="0 0 16 16" fill="none" xmlns="http://www.w3.org/2000/svg">
<path d="M4.18666 14.6667C4.73831 14.6667 5.26737 14.4475 5.65744 14.0574C6.04752 13.6674 6.26666 13.1383 6.26666 12.5867C6.26666 12.035 6.04752 11.5059 5.65744 11.1159C5.26737 10.7258 4.73831 10.5067 4.18666 10.5067C3.63501 10.5067 3.10595 10.7258 2.71588 11.1159C2.3258 11.5059 2.10666 12.035 2.10666 12.5867C2.10666 13.1383 2.3258 13.6674 2.71588 14.0574C3.10595 14.4475 3.63501 14.6667 4.18666 14.6667V14.6667Z" stroke="black" stroke-width="1.5" stroke-linecap="round" stroke-linejoin="round"/>
<path d="M13.8933 11.2V3.06667C13.8933 1.33333 12.8067 1.09333 11.7067 1.39333L7.54666 2.52667C6.78666 2.73333 6.26666 3.33333 6.26666 4.2V12.58" stroke="black" stroke-width="1.5" stroke-linecap="round" stroke-linejoin="round"/>
<path d="M6.26666 6.34666L13.8933 4.26666M11.8133 13.28C12.365 13.28 12.894 13.0609 13.2841 12.6708C13.6742 12.2807 13.8933 11.7516 13.8933 11.2C13.8933 10.6483 13.6742 10.1193 13.2841 9.72921C12.894 9.33914 12.365 9.12 11.8133 9.12C11.2617 9.12 10.7326 9.33914 10.3425 9.72921C9.95247 10.1193 9.73333 10.6483 9.73333 11.2C9.73333 11.7516 9.95247 12.2807 10.3425 12.6708C10.7326 13.0609 11.2617 13.28 11.8133 13.28V13.28Z" stroke="black" stroke-width="1.5" stroke-linecap="round" stroke-linejoin="round"/>
</svg>
