<svg width="19" height="20" viewBox="0 0 19 20" fill="none" xmlns="http://www.w3.org/2000/svg">
<path d="M10.7741 2.925L12.2408 5.85833C12.4408 6.26666 12.9741 6.65833 13.4241 6.73333L16.0824 7.175C17.7824 7.45833 18.1824 8.69166 16.9574 9.90833L14.8908 11.975C14.5408 12.325 14.3491 13 14.4574 13.4833L15.0491 16.0417C15.5158 18.0667 14.4408 18.85 12.6491 17.7917L10.1574 16.3167C9.70744 16.05 8.96578 16.05 8.50744 16.3167L6.01578 17.7917C4.23244 18.85 3.14911 18.0583 3.61578 16.0417L4.20744 13.4833C4.31578 13 4.12411 12.325 3.77411 11.975L1.70744 9.90833C0.490777 8.69166 0.882444 7.45833 2.58244 7.175L5.24078 6.73333C5.68244 6.65833 6.21578 6.26666 6.41578 5.85833L7.88244 2.925C8.68244 1.33333 9.98244 1.33333 10.7741 2.925V2.925Z" stroke="black" stroke-width="1.5" stroke-linecap="round" stroke-linejoin="round"/>
</svg>
