<svg width="13" height="14" viewBox="0 0 13 14" fill="none" xmlns="http://www.w3.org/2000/svg">
<path d="M8.88422 10.5216L8.88421 10.5216L8.88192 10.5229C8.64121 10.6654 8.34048 10.4925 8.34048 10.222V3.792H8.19048L8.34048 3.79144C8.34025 3.73037 8.35642 3.6701 8.38765 3.61662C8.41889 3.56312 8.46421 3.51812 8.51944 3.48647C8.57469 3.45482 8.63774 3.43774 8.70227 3.43719C8.76649 3.43665 8.82955 3.45251 8.88518 3.48296C8.88545 3.48311 8.88572 3.48325 8.88599 3.4834L10.0104 4.12242L10.0111 4.12279C11.453 4.93248 12.1383 5.98334 12.1383 7.002C12.1383 8.02066 11.453 9.07152 10.0111 9.88121L10.0104 9.88159L8.88422 10.5216ZM0.15 9.67V4.33C0.15 2.70367 0.737789 1.59785 1.64394 1.08691C2.55142 0.575226 3.82911 0.63124 5.27069 1.44071C5.27074 1.44074 5.27079 1.44076 5.27084 1.44079L6.58076 2.18048C6.58081 2.1805 6.58086 2.18053 6.5809 2.18056C6.85216 2.33446 7.01667 2.61512 7.01667 2.92V11.08C7.01667 11.3849 6.8521 11.6656 6.58076 11.8195L5.27084 12.5592C5.2708 12.5592 5.27077 12.5593 5.27073 12.5593C3.82913 13.3688 2.55143 13.4248 1.64394 12.9131C0.737789 12.4022 0.15 11.2963 0.15 9.67Z" fill="black" fill-opacity="0.8" stroke="black" stroke-width="0.3"/>
</svg>
