<svg width="25" height="25" viewBox="0 0 25 25" fill="none" xmlns="http://www.w3.org/2000/svg">
<path d="M13.5417 18.75H11.4583M11.4583 18.75V21.875C11.4583 22.3958 11.0417 22.9167 10.4167 22.9167C9.79167 22.9167 9.375 22.3958 9.375 21.875V18.75H11.4583ZM15.625 18.75V21.875C15.625 22.3958 15.2083 22.9167 14.5833 22.9167C13.9583 22.9167 13.5417 22.3958 13.5417 21.875V18.75H15.625ZM17.7083 11.4583V16.6667C17.7083 17.8125 16.7708 18.75 15.625 18.75H9.375C8.22917 18.75 7.29167 17.8125 7.29167 16.6667V11.4583C7.29167 10.3125 8.22917 9.37499 9.375 9.37499H15.625C16.7708 9.37499 17.7083 10.3125 17.7083 11.4583ZM5.20833 11.4583V15.625C5.20833 16.25 4.79167 16.6667 4.16667 16.6667C3.54167 16.6667 3.125 16.25 3.125 15.625V11.4583C3.125 10.8333 3.54167 10.4167 4.16667 10.4167C4.79167 10.4167 5.20833 10.8333 5.20833 11.4583ZM21.875 11.4583V15.625C21.875 16.25 21.4583 16.6667 20.8333 16.6667C20.2083 16.6667 19.7917 16.25 19.7917 15.625V11.4583C19.7917 10.8333 20.2083 10.4167 20.8333 10.4167C21.4583 10.4167 21.875 10.8333 21.875 11.4583ZM10 7.29166H15C15.9375 7.29166 16.6667 6.51041 16.6667 5.50624C16.6667 3.05103 14.7917 1.04166 12.5 1.04166C10.2083 1.04166 8.33333 3.05103 8.33333 5.50624C8.33333 6.51041 9.0625 7.29166 10 7.29166Z" stroke="black" stroke-width="1.5" stroke-miterlimit="10" stroke-linecap="round" stroke-linejoin="round"/>
</svg>
